<svg xmlns="http://www.w3.org/2000/svg" viewBox="0 0 700 380" width="700" height="380" role="img" aria-label="yamanao terminal: figlet banner and pixel ruby runner">
  <style>
    .win     { fill: #161b22; stroke: #30363d; stroke-width: 1.5; }
    .titlebar{ fill: #21262d; }
    .prompt  { font-family: "SFMono-Regular", Consolas, "Liberation Mono", Menlo, monospace; font-size: 13px; fill: #8b949e; }
    .cmd     { fill: #c9d1d9; }
    .dollar  { fill: #7ee787; }
    .px      { shape-rendering: crispEdges; }
    .h  { fill: #ff8fab; } /* ruby light */
    .m  { fill: #e0245e; } /* ruby mid   */
    .d  { fill: #8b1538; } /* ruby dark  */
    .g  { fill: #3fb950; } /* cactus     */
    .G  { fill: #2ea043; } /* cactus dark*/
    .cl { fill: #6e7681; } /* gray, same as the CLI C_DIM */
  </style>

  <!-- Terminal window -->
  <rect class="win" x="1" y="1" width="698" height="378" rx="8"/>
  <rect class="titlebar" x="2" y="2" width="696" height="26" rx="7"/>
  <rect class="titlebar" x="2" y="16" width="696" height="12"/>
  <circle cx="18" cy="15" r="5" fill="#ff5f56"/>
  <circle cx="36" cy="15" r="5" fill="#ffbd2e"/>
  <circle cx="54" cy="15" r="5" fill="#27c93f"/>

  <!-- figlet banner -->
  <text class="prompt dollar" x="16" y="50" textLength="23.4" lengthAdjust="spacingAndGlyphs">➜ ~</text>
  <text class="prompt cmd" x="47.2" y="50" textLength="109.2" lengthAdjust="spacingAndGlyphs">figlet yamanao</text>
  <!-- Per-row colors only: a real terminal can color per character, never inside a glyph.
       Drawn as rects (not <text>) so mobile font fallback can't break the alignment. -->
  <!-- BEGIN figlet-rects (generated by scripts/gen_banner_rects.rb — edit there, not here) -->
    <g fill="#ff8fab">
      <rect x="16" y="62" width="15.6" height="13"/>
      <rect x="62.8" y="62" width="15.6" height="13"/>
      <rect x="94" y="62" width="39" height="13"/>
      <rect x="148.6" y="62" width="23.4" height="13"/>
      <rect x="203.2" y="62" width="23.4" height="13"/>
      <rect x="242.2" y="62" width="39" height="13"/>
      <rect x="296.8" y="62" width="23.4" height="13"/>
      <rect x="351.4" y="62" width="15.6" height="13"/>
      <rect x="382.6" y="62" width="39" height="13"/>
      <rect x="445" y="62" width="46.8" height="13"/>
      <rect x="31.6" y="66.3" width="6.1" height="1.4"/>
      <rect x="36.3" y="66.3" width="1.4" height="8.7"/>
      <rect x="78.4" y="66.3" width="6.1" height="1.4"/>
      <rect x="83.1" y="66.3" width="1.4" height="8.7"/>
      <rect x="133" y="66.3" width="6.1" height="1.4"/>
      <rect x="137.7" y="66.3" width="1.4" height="8.7"/>
      <rect x="172" y="66.3" width="6.1" height="1.4"/>
      <rect x="176.7" y="66.3" width="1.4" height="8.7"/>
      <rect x="226.6" y="66.3" width="6.1" height="1.4"/>
      <rect x="231.3" y="66.3" width="1.4" height="8.7"/>
      <rect x="281.2" y="66.3" width="6.1" height="1.4"/>
      <rect x="285.9" y="66.3" width="1.4" height="8.7"/>
      <rect x="320.2" y="66.3" width="6.1" height="1.4"/>
      <rect x="324.9" y="66.3" width="1.4" height="8.7"/>
      <rect x="367" y="66.3" width="6.1" height="1.4"/>
      <rect x="371.7" y="66.3" width="1.4" height="8.7"/>
      <rect x="421.6" y="66.3" width="6.1" height="1.4"/>
      <rect x="426.3" y="66.3" width="1.4" height="8.7"/>
      <rect x="491.8" y="66.3" width="6.1" height="1.4"/>
      <rect x="496.5" y="66.3" width="1.4" height="8.7"/>
      <rect x="31.6" y="69.3" width="3.1" height="1.4"/>
      <rect x="33.3" y="69.3" width="1.4" height="5.7"/>
      <rect x="78.4" y="69.3" width="3.1" height="1.4"/>
      <rect x="80.1" y="69.3" width="1.4" height="5.7"/>
      <rect x="133" y="69.3" width="3.1" height="1.4"/>
      <rect x="134.7" y="69.3" width="1.4" height="5.7"/>
      <rect x="172" y="69.3" width="3.1" height="1.4"/>
      <rect x="173.7" y="69.3" width="1.4" height="5.7"/>
      <rect x="226.6" y="69.3" width="3.1" height="1.4"/>
      <rect x="228.3" y="69.3" width="1.4" height="5.7"/>
      <rect x="281.2" y="69.3" width="3.1" height="1.4"/>
      <rect x="282.9" y="69.3" width="1.4" height="5.7"/>
      <rect x="320.2" y="69.3" width="3.1" height="1.4"/>
      <rect x="321.9" y="69.3" width="1.4" height="5.7"/>
      <rect x="367" y="69.3" width="3.1" height="1.4"/>
      <rect x="368.7" y="69.3" width="1.4" height="5.7"/>
      <rect x="421.6" y="69.3" width="3.1" height="1.4"/>
      <rect x="423.3" y="69.3" width="1.4" height="5.7"/>
      <rect x="491.8" y="69.3" width="3.1" height="1.4"/>
      <rect x="493.5" y="69.3" width="1.4" height="5.7"/>
    </g>
    <g fill="#ff6b93">
      <rect x="17.7" y="75" width="1.4" height="8.7"/>
      <rect x="20.7" y="75" width="1.4" height="5.7"/>
      <rect x="23.8" y="75" width="15.6" height="13"/>
      <rect x="55" y="75" width="15.6" height="13"/>
      <rect x="80.1" y="75" width="1.4" height="5.7"/>
      <rect x="83.1" y="75" width="1.4" height="8.7"/>
      <rect x="86.2" y="75" width="15.6" height="13"/>
      <rect x="125.2" y="75" width="15.6" height="13"/>
      <rect x="148.6" y="75" width="31.2" height="13"/>
      <rect x="195.4" y="75" width="31.2" height="13"/>
      <rect x="228.3" y="75" width="1.4" height="13"/>
      <rect x="231.3" y="75" width="1.4" height="13"/>
      <rect x="234.4" y="75" width="15.6" height="13"/>
      <rect x="273.4" y="75" width="15.6" height="13"/>
      <rect x="296.8" y="75" width="31.2" height="13"/>
      <rect x="351.4" y="75" width="15.6" height="13"/>
      <rect x="368.7" y="75" width="1.4" height="13"/>
      <rect x="371.7" y="75" width="1.4" height="13"/>
      <rect x="374.8" y="75" width="15.6" height="13"/>
      <rect x="413.8" y="75" width="15.6" height="13"/>
      <rect x="437.2" y="75" width="15.6" height="13"/>
      <rect x="484" y="75" width="15.6" height="13"/>
      <rect x="20.7" y="79.3" width="3.1" height="1.4"/>
      <rect x="39.4" y="79.3" width="6.1" height="1.4"/>
      <rect x="44.1" y="79.3" width="1.4" height="8.7"/>
      <rect x="72.3" y="79.3" width="1.4" height="8.7"/>
      <rect x="72.3" y="79.3" width="9.2" height="1.4"/>
      <rect x="103.5" y="79.3" width="1.4" height="8.7"/>
      <rect x="103.5" y="79.3" width="21.7" height="1.4"/>
      <rect x="140.8" y="79.3" width="6.1" height="1.4"/>
      <rect x="145.5" y="79.3" width="1.4" height="8.7"/>
      <rect x="179.8" y="79.3" width="6.1" height="1.4"/>
      <rect x="184.5" y="79.3" width="1.4" height="8.7"/>
      <rect x="251.7" y="79.3" width="21.7" height="1.4"/>
      <rect x="251.7" y="79.3" width="1.4" height="8.7"/>
      <rect x="289" y="79.3" width="6.1" height="1.4"/>
      <rect x="293.7" y="79.3" width="1.4" height="8.7"/>
      <rect x="328" y="79.3" width="6.1" height="1.4"/>
      <rect x="332.7" y="79.3" width="1.4" height="8.7"/>
      <rect x="392.1" y="79.3" width="1.4" height="8.7"/>
      <rect x="392.1" y="79.3" width="21.7" height="1.4"/>
      <rect x="429.4" y="79.3" width="6.1" height="1.4"/>
      <rect x="434.1" y="79.3" width="1.4" height="8.7"/>
      <rect x="454.5" y="79.3" width="1.4" height="8.7"/>
      <rect x="454.5" y="79.3" width="29.5" height="1.4"/>
      <rect x="499.6" y="79.3" width="6.1" height="1.4"/>
      <rect x="504.3" y="79.3" width="1.4" height="8.7"/>
      <rect x="17.7" y="82.3" width="6.1" height="1.4"/>
      <rect x="39.4" y="82.3" width="3.1" height="1.4"/>
      <rect x="41.1" y="82.3" width="1.4" height="5.7"/>
      <rect x="75.3" y="82.3" width="9.2" height="1.4"/>
      <rect x="75.3" y="82.3" width="1.4" height="5.7"/>
      <rect x="106.5" y="82.3" width="1.4" height="5.7"/>
      <rect x="106.5" y="82.3" width="18.7" height="1.4"/>
      <rect x="140.8" y="82.3" width="3.1" height="1.4"/>
      <rect x="142.5" y="82.3" width="1.4" height="5.7"/>
      <rect x="179.8" y="82.3" width="3.1" height="1.4"/>
      <rect x="181.5" y="82.3" width="1.4" height="5.7"/>
      <rect x="254.7" y="82.3" width="1.4" height="5.7"/>
      <rect x="254.7" y="82.3" width="18.7" height="1.4"/>
      <rect x="289" y="82.3" width="3.1" height="1.4"/>
      <rect x="290.7" y="82.3" width="1.4" height="5.7"/>
      <rect x="328" y="82.3" width="3.1" height="1.4"/>
      <rect x="329.7" y="82.3" width="1.4" height="5.7"/>
      <rect x="395.1" y="82.3" width="1.4" height="5.7"/>
      <rect x="395.1" y="82.3" width="18.7" height="1.4"/>
      <rect x="429.4" y="82.3" width="3.1" height="1.4"/>
      <rect x="431.1" y="82.3" width="1.4" height="5.7"/>
      <rect x="457.5" y="82.3" width="26.5" height="1.4"/>
      <rect x="457.5" y="82.3" width="1.4" height="5.7"/>
      <rect x="499.6" y="82.3" width="3.1" height="1.4"/>
      <rect x="501.3" y="82.3" width="1.4" height="5.7"/>
    </g>
    <g fill="#f0447a">
      <rect x="25.5" y="88" width="1.4" height="8.7"/>
      <rect x="28.5" y="88" width="1.4" height="5.7"/>
      <rect x="31.6" y="88" width="31.2" height="13"/>
      <rect x="72.3" y="88" width="1.4" height="5.7"/>
      <rect x="75.3" y="88" width="1.4" height="8.7"/>
      <rect x="86.2" y="88" width="54.6" height="13"/>
      <rect x="142.5" y="88" width="1.4" height="13"/>
      <rect x="145.5" y="88" width="1.4" height="13"/>
      <rect x="148.6" y="88" width="15.6" height="13"/>
      <rect x="172" y="88" width="31.2" height="13"/>
      <rect x="211" y="88" width="15.6" height="13"/>
      <rect x="228.3" y="88" width="1.4" height="13"/>
      <rect x="231.3" y="88" width="1.4" height="13"/>
      <rect x="234.4" y="88" width="54.6" height="13"/>
      <rect x="290.7" y="88" width="1.4" height="13"/>
      <rect x="293.7" y="88" width="1.4" height="13"/>
      <rect x="296.8" y="88" width="15.6" height="13"/>
      <rect x="320.2" y="88" width="15.6" height="13"/>
      <rect x="351.4" y="88" width="15.6" height="13"/>
      <rect x="368.7" y="88" width="1.4" height="13"/>
      <rect x="371.7" y="88" width="1.4" height="13"/>
      <rect x="374.8" y="88" width="54.6" height="13"/>
      <rect x="431.1" y="88" width="1.4" height="13"/>
      <rect x="434.1" y="88" width="1.4" height="13"/>
      <rect x="437.2" y="88" width="15.6" height="13"/>
      <rect x="454.5" y="88" width="1.4" height="13"/>
      <rect x="457.5" y="88" width="1.4" height="13"/>
      <rect x="484" y="88" width="15.6" height="13"/>
      <rect x="501.3" y="88" width="1.4" height="13"/>
      <rect x="504.3" y="88" width="1.4" height="13"/>
      <rect x="28.5" y="92.3" width="3.1" height="1.4"/>
      <rect x="64.5" y="92.3" width="1.4" height="8.7"/>
      <rect x="64.5" y="92.3" width="9.2" height="1.4"/>
      <rect x="165.9" y="92.3" width="6.1" height="1.4"/>
      <rect x="165.9" y="92.3" width="1.4" height="8.7"/>
      <rect x="204.9" y="92.3" width="1.4" height="8.7"/>
      <rect x="204.9" y="92.3" width="6.1" height="1.4"/>
      <rect x="314.1" y="92.3" width="6.1" height="1.4"/>
      <rect x="314.1" y="92.3" width="1.4" height="8.7"/>
      <rect x="335.8" y="92.3" width="6.1" height="1.4"/>
      <rect x="340.5" y="92.3" width="1.4" height="8.7"/>
      <rect x="25.5" y="95.3" width="6.1" height="1.4"/>
      <rect x="67.5" y="95.3" width="9.2" height="1.4"/>
      <rect x="67.5" y="95.3" width="1.4" height="5.7"/>
      <rect x="168.9" y="95.3" width="3.1" height="1.4"/>
      <rect x="168.9" y="95.3" width="1.4" height="5.7"/>
      <rect x="207.9" y="95.3" width="3.1" height="1.4"/>
      <rect x="207.9" y="95.3" width="1.4" height="5.7"/>
      <rect x="317.1" y="95.3" width="1.4" height="5.7"/>
      <rect x="317.1" y="95.3" width="3.1" height="1.4"/>
      <rect x="335.8" y="95.3" width="3.1" height="1.4"/>
      <rect x="337.5" y="95.3" width="1.4" height="5.7"/>
    </g>
    <g fill="#d92c63">
      <rect x="33.3" y="101" width="1.4" height="8.7"/>
      <rect x="36.3" y="101" width="1.4" height="5.7"/>
      <rect x="39.4" y="101" width="15.6" height="13"/>
      <rect x="64.5" y="101" width="1.4" height="5.7"/>
      <rect x="67.5" y="101" width="1.4" height="8.7"/>
      <rect x="86.2" y="101" width="15.6" height="13"/>
      <rect x="125.2" y="101" width="15.6" height="13"/>
      <rect x="142.5" y="101" width="1.4" height="13"/>
      <rect x="145.5" y="101" width="1.4" height="13"/>
      <rect x="148.6" y="101" width="15.6" height="13"/>
      <rect x="165.9" y="101" width="1.4" height="13"/>
      <rect x="168.9" y="101" width="1.4" height="13"/>
      <rect x="173.7" y="101" width="1.4" height="8.7"/>
      <rect x="176.7" y="101" width="1.4" height="5.7"/>
      <rect x="179.8" y="101" width="15.6" height="13"/>
      <rect x="204.9" y="101" width="1.4" height="5.7"/>
      <rect x="207.9" y="101" width="1.4" height="8.7"/>
      <rect x="211" y="101" width="15.6" height="13"/>
      <rect x="228.3" y="101" width="1.4" height="13"/>
      <rect x="231.3" y="101" width="1.4" height="13"/>
      <rect x="234.4" y="101" width="15.6" height="13"/>
      <rect x="273.4" y="101" width="15.6" height="13"/>
      <rect x="290.7" y="101" width="1.4" height="13"/>
      <rect x="293.7" y="101" width="1.4" height="13"/>
      <rect x="296.8" y="101" width="15.6" height="13"/>
      <rect x="314.1" y="101" width="1.4" height="13"/>
      <rect x="317.1" y="101" width="1.4" height="13"/>
      <rect x="321.9" y="101" width="1.4" height="8.7"/>
      <rect x="324.9" y="101" width="1.4" height="5.7"/>
      <rect x="328" y="101" width="15.6" height="13"/>
      <rect x="351.4" y="101" width="15.6" height="13"/>
      <rect x="368.7" y="101" width="1.4" height="13"/>
      <rect x="371.7" y="101" width="1.4" height="13"/>
      <rect x="374.8" y="101" width="15.6" height="13"/>
      <rect x="413.8" y="101" width="15.6" height="13"/>
      <rect x="431.1" y="101" width="1.4" height="13"/>
      <rect x="434.1" y="101" width="1.4" height="13"/>
      <rect x="437.2" y="101" width="15.6" height="13"/>
      <rect x="454.5" y="101" width="1.4" height="13"/>
      <rect x="457.5" y="101" width="1.4" height="13"/>
      <rect x="484" y="101" width="15.6" height="13"/>
      <rect x="501.3" y="101" width="1.4" height="13"/>
      <rect x="504.3" y="101" width="1.4" height="13"/>
      <rect x="36.3" y="105.3" width="3.1" height="1.4"/>
      <rect x="56.7" y="105.3" width="9.2" height="1.4"/>
      <rect x="56.7" y="105.3" width="1.4" height="8.7"/>
      <rect x="103.5" y="105.3" width="21.7" height="1.4"/>
      <rect x="103.5" y="105.3" width="1.4" height="8.7"/>
      <rect x="176.7" y="105.3" width="3.1" height="1.4"/>
      <rect x="197.1" y="105.3" width="1.4" height="8.7"/>
      <rect x="197.1" y="105.3" width="9.2" height="1.4"/>
      <rect x="251.7" y="105.3" width="21.7" height="1.4"/>
      <rect x="251.7" y="105.3" width="1.4" height="8.7"/>
      <rect x="324.9" y="105.3" width="3.1" height="1.4"/>
      <rect x="343.6" y="105.3" width="6.1" height="1.4"/>
      <rect x="348.3" y="105.3" width="1.4" height="8.7"/>
      <rect x="392.1" y="105.3" width="21.7" height="1.4"/>
      <rect x="392.1" y="105.3" width="1.4" height="8.7"/>
      <rect x="33.3" y="108.3" width="6.1" height="1.4"/>
      <rect x="59.7" y="108.3" width="9.2" height="1.4"/>
      <rect x="59.7" y="108.3" width="1.4" height="5.7"/>
      <rect x="106.5" y="108.3" width="18.7" height="1.4"/>
      <rect x="106.5" y="108.3" width="1.4" height="5.7"/>
      <rect x="173.7" y="108.3" width="6.1" height="1.4"/>
      <rect x="200.1" y="108.3" width="1.4" height="5.7"/>
      <rect x="200.1" y="108.3" width="9.2" height="1.4"/>
      <rect x="254.7" y="108.3" width="18.7" height="1.4"/>
      <rect x="254.7" y="108.3" width="1.4" height="5.7"/>
      <rect x="321.9" y="108.3" width="6.1" height="1.4"/>
      <rect x="343.6" y="108.3" width="3.1" height="1.4"/>
      <rect x="345.3" y="108.3" width="1.4" height="5.7"/>
      <rect x="395.1" y="108.3" width="1.4" height="5.7"/>
      <rect x="395.1" y="108.3" width="18.7" height="1.4"/>
    </g>
    <g fill="#b3204e">
      <rect x="39.4" y="114" width="15.6" height="13"/>
      <rect x="56.7" y="114" width="1.4" height="13"/>
      <rect x="59.7" y="114" width="1.4" height="13"/>
      <rect x="86.2" y="114" width="15.6" height="13"/>
      <rect x="103.5" y="114" width="1.4" height="13"/>
      <rect x="106.5" y="114" width="1.4" height="13"/>
      <rect x="125.2" y="114" width="15.6" height="13"/>
      <rect x="142.5" y="114" width="1.4" height="13"/>
      <rect x="145.5" y="114" width="1.4" height="13"/>
      <rect x="148.6" y="114" width="15.6" height="13"/>
      <rect x="165.9" y="114" width="1.4" height="13"/>
      <rect x="168.9" y="114" width="1.4" height="13"/>
      <rect x="181.5" y="114" width="1.4" height="8.7"/>
      <rect x="184.5" y="114" width="1.4" height="5.7"/>
      <rect x="197.1" y="114" width="1.4" height="5.7"/>
      <rect x="200.1" y="114" width="1.4" height="8.7"/>
      <rect x="211" y="114" width="15.6" height="13"/>
      <rect x="228.3" y="114" width="1.4" height="13"/>
      <rect x="231.3" y="114" width="1.4" height="13"/>
      <rect x="234.4" y="114" width="15.6" height="13"/>
      <rect x="251.7" y="114" width="1.4" height="13"/>
      <rect x="254.7" y="114" width="1.4" height="13"/>
      <rect x="273.4" y="114" width="15.6" height="13"/>
      <rect x="290.7" y="114" width="1.4" height="13"/>
      <rect x="293.7" y="114" width="1.4" height="13"/>
      <rect x="296.8" y="114" width="15.6" height="13"/>
      <rect x="314.1" y="114" width="1.4" height="13"/>
      <rect x="317.1" y="114" width="1.4" height="13"/>
      <rect x="329.7" y="114" width="1.4" height="8.7"/>
      <rect x="332.7" y="114" width="1.4" height="5.7"/>
      <rect x="335.8" y="114" width="31.2" height="13"/>
      <rect x="368.7" y="114" width="1.4" height="13"/>
      <rect x="371.7" y="114" width="1.4" height="13"/>
      <rect x="374.8" y="114" width="15.6" height="13"/>
      <rect x="392.1" y="114" width="1.4" height="13"/>
      <rect x="395.1" y="114" width="1.4" height="13"/>
      <rect x="413.8" y="114" width="15.6" height="13"/>
      <rect x="431.1" y="114" width="1.4" height="13"/>
      <rect x="434.1" y="114" width="1.4" height="13"/>
      <rect x="438.9" y="114" width="1.4" height="8.7"/>
      <rect x="441.9" y="114" width="1.4" height="5.7"/>
      <rect x="445" y="114" width="46.8" height="13"/>
      <rect x="501.3" y="114" width="1.4" height="5.7"/>
      <rect x="504.3" y="114" width="1.4" height="8.7"/>
      <rect x="184.5" y="118.3" width="14" height="1.4"/>
      <rect x="332.7" y="118.3" width="3.1" height="1.4"/>
      <rect x="441.9" y="118.3" width="3.1" height="1.4"/>
      <rect x="493.5" y="118.3" width="9.2" height="1.4"/>
      <rect x="493.5" y="118.3" width="1.4" height="8.7"/>
      <rect x="181.5" y="121.3" width="20" height="1.4"/>
      <rect x="329.7" y="121.3" width="6.1" height="1.4"/>
      <rect x="438.9" y="121.3" width="6.1" height="1.4"/>
      <rect x="496.5" y="121.3" width="1.4" height="5.7"/>
      <rect x="496.5" y="121.3" width="9.2" height="1.4"/>
    </g>
    <g fill="#8b1538">
      <rect x="41.1" y="127" width="1.4" height="8.7"/>
      <rect x="44.1" y="127" width="1.4" height="5.7"/>
      <rect x="56.7" y="127" width="1.4" height="5.7"/>
      <rect x="59.7" y="127" width="1.4" height="8.7"/>
      <rect x="87.9" y="127" width="1.4" height="8.7"/>
      <rect x="90.9" y="127" width="1.4" height="5.7"/>
      <rect x="103.5" y="127" width="1.4" height="5.7"/>
      <rect x="106.5" y="127" width="1.4" height="8.7"/>
      <rect x="126.9" y="127" width="1.4" height="8.7"/>
      <rect x="129.9" y="127" width="1.4" height="5.7"/>
      <rect x="142.5" y="127" width="1.4" height="5.7"/>
      <rect x="145.5" y="127" width="1.4" height="8.7"/>
      <rect x="150.3" y="127" width="1.4" height="8.7"/>
      <rect x="153.3" y="127" width="1.4" height="5.7"/>
      <rect x="165.9" y="127" width="1.4" height="5.7"/>
      <rect x="168.9" y="127" width="1.4" height="8.7"/>
      <rect x="212.7" y="127" width="1.4" height="8.7"/>
      <rect x="215.7" y="127" width="1.4" height="5.7"/>
      <rect x="228.3" y="127" width="1.4" height="5.7"/>
      <rect x="231.3" y="127" width="1.4" height="8.7"/>
      <rect x="236.1" y="127" width="1.4" height="8.7"/>
      <rect x="239.1" y="127" width="1.4" height="5.7"/>
      <rect x="251.7" y="127" width="1.4" height="5.7"/>
      <rect x="254.7" y="127" width="1.4" height="8.7"/>
      <rect x="275.1" y="127" width="1.4" height="8.7"/>
      <rect x="278.1" y="127" width="1.4" height="5.7"/>
      <rect x="290.7" y="127" width="1.4" height="5.7"/>
      <rect x="293.7" y="127" width="1.4" height="8.7"/>
      <rect x="298.5" y="127" width="1.4" height="8.7"/>
      <rect x="301.5" y="127" width="1.4" height="5.7"/>
      <rect x="314.1" y="127" width="1.4" height="5.7"/>
      <rect x="317.1" y="127" width="1.4" height="8.7"/>
      <rect x="345.3" y="127" width="1.4" height="8.7"/>
      <rect x="348.3" y="127" width="1.4" height="5.7"/>
      <rect x="360.9" y="127" width="1.4" height="5.7"/>
      <rect x="363.9" y="127" width="1.4" height="8.7"/>
      <rect x="368.7" y="127" width="1.4" height="8.7"/>
      <rect x="371.7" y="127" width="1.4" height="5.7"/>
      <rect x="384.3" y="127" width="1.4" height="5.7"/>
      <rect x="387.3" y="127" width="1.4" height="8.7"/>
      <rect x="407.7" y="127" width="1.4" height="8.7"/>
      <rect x="410.7" y="127" width="1.4" height="5.7"/>
      <rect x="423.3" y="127" width="1.4" height="5.7"/>
      <rect x="426.3" y="127" width="1.4" height="8.7"/>
      <rect x="438.9" y="127" width="1.4" height="8.7"/>
      <rect x="441.9" y="127" width="1.4" height="5.7"/>
      <rect x="485.7" y="127" width="1.4" height="5.7"/>
      <rect x="488.7" y="127" width="1.4" height="8.7"/>
      <rect x="44.1" y="131.3" width="14" height="1.4"/>
      <rect x="90.9" y="131.3" width="14" height="1.4"/>
      <rect x="129.9" y="131.3" width="14" height="1.4"/>
      <rect x="153.3" y="131.3" width="14" height="1.4"/>
      <rect x="215.7" y="131.3" width="14" height="1.4"/>
      <rect x="239.1" y="131.3" width="14" height="1.4"/>
      <rect x="278.1" y="131.3" width="14" height="1.4"/>
      <rect x="301.5" y="131.3" width="14" height="1.4"/>
      <rect x="348.3" y="131.3" width="14" height="1.4"/>
      <rect x="371.7" y="131.3" width="14" height="1.4"/>
      <rect x="410.7" y="131.3" width="14" height="1.4"/>
      <rect x="441.9" y="131.3" width="45.2" height="1.4"/>
      <rect x="41.1" y="134.3" width="20" height="1.4"/>
      <rect x="87.9" y="134.3" width="20" height="1.4"/>
      <rect x="126.9" y="134.3" width="20" height="1.4"/>
      <rect x="150.3" y="134.3" width="20" height="1.4"/>
      <rect x="212.7" y="134.3" width="20" height="1.4"/>
      <rect x="236.1" y="134.3" width="20" height="1.4"/>
      <rect x="275.1" y="134.3" width="20" height="1.4"/>
      <rect x="298.5" y="134.3" width="20" height="1.4"/>
      <rect x="345.3" y="134.3" width="20" height="1.4"/>
      <rect x="368.7" y="134.3" width="20" height="1.4"/>
      <rect x="407.7" y="134.3" width="20" height="1.4"/>
      <rect x="438.9" y="134.3" width="51.2" height="1.4"/>
    </g>
  <!-- END figlet-rects -->

  <!-- Prompt line -->
  <text class="prompt dollar" x="16" y="162" textLength="23.4" lengthAdjust="spacingAndGlyphs">➜ ~</text>
  <text class="prompt cmd" x="47.2" y="162" textLength="93.6" lengthAdjust="spacingAndGlyphs">ruby jump.rb</text>
  <rect x="142" y="151" width="8" height="14" fill="#7ee787">
    <animate attributeName="opacity" values="1;1;0;0" keyTimes="0;0.5;0.5;1" dur="1.2s" repeatCount="indefinite"/>
  </rect>

  <!-- Clouds: same sprites as the CLI (base bar + right-offset puff) -->
  <g class="px cl">
    <g>
      <rect x="42" y="7"  width="28" height="7"/>
      <rect x="7"  y="14" width="70" height="14"/>
      <rect x="0"  y="21" width="7"  height="7"/>
      <rect x="77" y="21" width="7"  height="7"/>
      <animateTransform attributeName="transform" type="translate"
        values="700 185; -90 185" dur="16s" repeatCount="indefinite"/>
    </g>
    <g>
      <rect x="28" y="7"  width="14" height="7"/>
      <rect x="7"  y="14" width="42" height="14"/>
      <rect x="0"  y="21" width="7"  height="7"/>
      <rect x="49" y="21" width="7"  height="7"/>
      <animateTransform attributeName="transform" type="translate"
        values="700 218; -60 218" dur="18s" begin="-7s" repeatCount="indefinite"/>
    </g>
  </g>

  <!-- Ground line + scrolling dots (▪), same rhythm as the CLI -->
  <rect class="cl px" x="16" y="340" width="668" height="3"/>
  <g class="px">
    <g class="cl">
      <rect x="0"   y="348" width="21" height="4"/>
      <rect x="84"  y="348" width="21" height="4"/>
      <rect x="168" y="348" width="21" height="4"/>
      <rect x="252" y="348" width="21" height="4"/>
      <rect x="336" y="348" width="21" height="4"/>
      <rect x="420" y="348" width="21" height="4"/>
      <rect x="504" y="348" width="21" height="4"/>
      <rect x="588" y="348" width="21" height="4"/>
      <rect x="672" y="348" width="21" height="4"/>
      <rect x="756" y="348" width="21" height="4"/>
    </g>
    <!-- 84px per 0.269s = 312.5px/s, exactly the cactus speed (750px / 2.4s) -->
    <animateTransform attributeName="transform" type="translate"
      values="0 0; -84 0" dur="0.269s" repeatCount="indefinite"/>
  </g>

  <!-- Cactus #1 (small, 5x4 cells, 7px unit): crosses in first half of the 4.8s cycle -->
  <g>
    <g class="px">
      <rect class="g" x="14" y="291" width="7" height="49"/>
      <rect class="g" x="0"  y="291" width="7" height="21"/>
      <rect class="g" x="7"  y="312" width="7" height="7"/>
      <rect class="G" x="28" y="305" width="7" height="21"/>
      <rect class="G" x="21" y="326" width="7" height="7"/>
    </g>
    <animateTransform attributeName="transform" type="translate"
      values="710 0; -50 0; -50 0" keyTimes="0; 0.5; 1"
      dur="4.8s" repeatCount="indefinite"/>
  </g>

  <!-- Cactus #2 (big, 5x6 cells, 7px unit): crosses in second half -->
  <g>
    <g class="px">
      <rect class="g" x="14" y="263" width="7" height="77"/>
      <rect class="g" x="0"  y="277" width="7" height="21"/>
      <rect class="g" x="7"  y="298" width="7" height="7"/>
      <rect class="G" x="28" y="291" width="7" height="21"/>
      <rect class="G" x="21" y="312" width="7" height="7"/>
    </g>
    <animateTransform attributeName="transform" type="translate"
      values="710 0; 710 0; -50 0" keyTimes="0; 0.5; 1"
      dur="4.8s" repeatCount="indefinite"/>
  </g>

  <!-- Ruby gem (11x5 cells, 7px unit, same sprite as the CLI), tip resting on the ground -->
  <g transform="translate(55, 0)">
    <g class="px">
      <!-- light -->
      <rect class="h" x="14" y="284" width="49" height="7"/>
      <rect class="h" x="0"  y="298" width="7"  height="7"/>
      <rect class="h" x="7"  y="291" width="14" height="14"/>
      <!-- mid -->
      <rect class="m" x="21" y="291" width="42" height="14"/>
      <rect class="m" x="7"  y="305" width="7"  height="7"/>
      <rect class="m" x="14" y="305" width="42" height="14"/>
      <rect class="m" x="21" y="319" width="7"  height="7"/>
      <rect class="m" x="28" y="319" width="7"  height="14"/>
      <!-- dark -->
      <rect class="d" x="63" y="291" width="7"  height="14"/>
      <rect class="d" x="70" y="298" width="7"  height="7"/>
      <rect class="d" x="56" y="305" width="7"  height="14"/>
      <rect class="d" x="63" y="305" width="7"  height="7"/>
      <rect class="d" x="35" y="319" width="14" height="14"/>
      <rect class="d" x="49" y="319" width="7"  height="7"/>
      <rect class="d" x="35" y="333" width="7"  height="7"/>
      <!-- stepped pixel jump: two hops per 4.8s cycle -->
      <animateTransform attributeName="transform" type="translate" calcMode="discrete"
        values="0 0; 0 -28; 0 -63; 0 -87; 0 -101; 0 -87; 0 -63; 0 -28; 0 0; 0 -28; 0 -63; 0 -87; 0 -101; 0 -87; 0 -63; 0 -28; 0 0; 0 0"
        keyTimes="0; 0.35; 0.362; 0.374; 0.386; 0.44; 0.452; 0.464; 0.476; 0.85; 0.862; 0.874; 0.886; 0.94; 0.952; 0.964; 0.976; 1"
        dur="4.8s" repeatCount="indefinite"/>
    </g>
  </g>
</svg>
