<svg xmlns="http://www.w3.org/2000/svg" viewBox="0 0 64 64" width="64" height="64" role="img" aria-label="X: x.com/yamanaoRuby">
  <rect x="1" y="1" width="62" height="62" rx="8" fill="#161b22" stroke="#30363d" stroke-width="1.5"/>
  <g fill="#ffffff" shape-rendering="crispEdges">
    <rect x="8" y="12" width="12" height="4"/>
    <rect x="48" y="12" width="8" height="4"/>
    <rect x="12" y="16" width="12" height="4"/>
    <rect x="44" y="16" width="8" height="4"/>
    <rect x="16" y="20" width="12" height="4"/>
    <rect x="40" y="20" width="8" height="4"/>
    <rect x="20" y="24" width="12" height="4"/>
    <rect x="36" y="24" width="8" height="4"/>
    <rect x="24" y="28" width="16" height="4"/>
    <rect x="28" y="32" width="12" height="4"/>
    <rect x="24" y="36" width="20" height="4"/>
    <rect x="20" y="40" width="8" height="4"/>
    <rect x="36" y="40" width="12" height="4"/>
    <rect x="16" y="44" width="8" height="4"/>
    <rect x="40" y="44" width="12" height="4"/>
    <rect x="12" y="48" width="8" height="4"/>
    <rect x="44" y="48" width="12" height="4"/>
  </g>
</svg>
